<svg width="176" height="30" viewBox="0 0 176 30" fill="none" xmlns="http://www.w3.org/2000/svg">
<path d="M1.32 29V24.8L12.12 14.6C12.9733 13.8267 13.6 13.1333 14 12.52C14.4 11.9067 14.6667 11.3467 14.8 10.84C14.96 10.3333 15.04 9.86667 15.04 9.44C15.04 8.32 14.6533 7.46667 13.88 6.88C13.1333 6.26667 12.0267 5.96 10.56 5.96C9.38667 5.96 8.29333 6.18667 7.28 6.64C6.29333 7.09333 5.45333 7.8 4.76 8.76L0.04 5.72C1.10667 4.12 2.6 2.85333 4.52 1.92C6.44 0.986666 8.65333 0.52 11.16 0.52C13.24 0.52 15.0533 0.866666 16.6 1.56C18.1733 2.22667 19.3867 3.17333 20.24 4.4C21.12 5.62667 21.56 7.09333 21.56 8.8C21.56 9.70667 21.44 10.6133 21.2 11.52C20.9867 12.4 20.5333 13.3333 19.84 14.32C19.1733 15.3067 18.1867 16.4133 16.88 17.64L7.92 26.08L6.68 23.72H22.48V29H1.32ZM29.6338 29L40.9138 3.48L42.5938 6.28H27.5138L30.3938 3.24V10.84H24.6338V0.999998H47.0738V5.2L36.6738 29H29.6338Z" fill="#040F0F"/>
<path d="M63.0466 29V0.999998H69.5266V23.72H83.5666V29H63.0466ZM97.31 29.32C94.8567 29.32 92.6967 28.84 90.83 27.88C88.99 26.92 87.5633 25.6133 86.55 23.96C85.5367 22.28 85.03 20.3733 85.03 18.24C85.03 16.08 85.5233 14.1733 86.51 12.52C87.5233 10.84 88.8967 9.53333 90.63 8.6C92.3633 7.64 94.3233 7.16 96.51 7.16C98.6167 7.16 100.51 7.61333 102.19 8.52C103.897 9.4 105.243 10.68 106.23 12.36C107.217 14.0133 107.71 16 107.71 18.32C107.71 18.56 107.697 18.84 107.67 19.16C107.643 19.4533 107.617 19.7333 107.59 20H90.11V16.36H104.31L101.91 17.44C101.91 16.32 101.683 15.3467 101.23 14.52C100.777 13.6933 100.15 13.0533 99.35 12.6C98.55 12.12 97.6167 11.88 96.55 11.88C95.4833 11.88 94.5367 12.12 93.71 12.6C92.91 13.0533 92.2833 13.7067 91.83 14.56C91.3767 15.3867 91.15 16.3733 91.15 17.52V18.48C91.15 19.6533 91.4033 20.6933 91.91 21.6C92.4433 22.48 93.1767 23.16 94.11 23.64C95.07 24.0933 96.19 24.32 97.47 24.32C98.6167 24.32 99.6167 24.1467 100.47 23.8C101.35 23.4533 102.15 22.9333 102.87 22.24L106.19 25.84C105.203 26.96 103.963 27.8267 102.47 28.44C100.977 29.0267 99.2567 29.32 97.31 29.32ZM124.478 29V24.8L124.078 23.88V16.36C124.078 15.0267 123.665 13.9867 122.838 13.24C122.038 12.4933 120.798 12.12 119.118 12.12C117.972 12.12 116.838 12.3067 115.718 12.68C114.625 13.0267 113.692 13.5067 112.918 14.12L110.678 9.76C111.852 8.93333 113.265 8.29333 114.918 7.84C116.572 7.38667 118.252 7.16 119.958 7.16C123.238 7.16 125.785 7.93333 127.598 9.48C129.412 11.0267 130.318 13.44 130.318 16.72V29H124.478ZM117.918 29.32C116.238 29.32 114.798 29.04 113.598 28.48C112.398 27.8933 111.478 27.1067 110.838 26.12C110.198 25.1333 109.878 24.0267 109.878 22.8C109.878 21.52 110.185 20.4 110.798 19.44C111.438 18.48 112.438 17.7333 113.798 17.2C115.158 16.64 116.932 16.36 119.118 16.36H124.838V20H119.798C118.332 20 117.318 20.24 116.758 20.72C116.225 21.2 115.958 21.8 115.958 22.52C115.958 23.32 116.265 23.96 116.878 24.44C117.518 24.8933 118.385 25.12 119.478 25.12C120.518 25.12 121.452 24.88 122.278 24.4C123.105 23.8933 123.705 23.16 124.078 22.2L125.038 25.08C124.585 26.4667 123.758 27.52 122.558 28.24C121.358 28.96 119.812 29.32 117.918 29.32ZM135.966 29V7.48H141.926V13.56L141.086 11.8C141.726 10.28 142.753 9.13333 144.166 8.36C145.579 7.56 147.299 7.16 149.326 7.16V12.92C149.059 12.8933 148.819 12.88 148.606 12.88C148.393 12.8533 148.166 12.84 147.926 12.84C146.219 12.84 144.833 13.3333 143.766 14.32C142.726 15.28 142.206 16.7867 142.206 18.84V29H135.966ZM166.155 7.16C167.862 7.16 169.382 7.50667 170.715 8.2C172.075 8.86667 173.142 9.90667 173.915 11.32C174.689 12.7067 175.075 14.4933 175.075 16.68V29H168.835V17.64C168.835 15.9067 168.449 14.6267 167.675 13.8C166.929 12.9733 165.862 12.56 164.475 12.56C163.489 12.56 162.595 12.7733 161.795 13.2C161.022 13.6 160.409 14.2267 159.955 15.08C159.529 15.9333 159.315 17.0267 159.315 18.36V29H153.075V7.48H159.035V13.44L157.915 11.64C158.689 10.2 159.795 9.09333 161.235 8.32C162.675 7.54667 164.315 7.16 166.155 7.16Z" fill="#2C813B"/>
</svg>
